<?xml version="1.0" standalone="no"?>
<!DOCTYPE svg PUBLIC "-//W3C//DTD SVG 20010904//EN"
 "http://www.w3.org/TR/2001/REC-SVG-20010904/DTD/svg10.dtd">
<svg version="1.0" xmlns="http://www.w3.org/2000/svg"
 width="700.000000pt" height="700.000000pt" viewBox="0 0 700.000000 700.000000"
 preserveAspectRatio="xMidYMid meet">
<metadata>
Created by potrace 1.14, written by Peter Selinger 2001-2017
</metadata>
<g transform="translate(0.000000,700.000000) scale(0.100000,-0.100000)"
fill="#000000" stroke="none">
<path d="M5165 4813 c-113 -7 -331 -70 -376 -108 -15 -12 -69 -48 -120 -80
-52 -33 -109 -71 -128 -87 l-35 -27 -65 109 -66 110 -395 -2 c-385 -3 -395 -4
-395 -23 0 -13 9 -21 30 -25 47 -10 138 -60 162 -89 29 -35 30 -114 2 -201
-36 -112 -40 -124 -59 -170 -42 -106 -522 -1062 -529 -1054 -5 5 -101 232
-214 504 -270 652 -307 749 -307 815 0 32 7 51 26 74 14 17 33 31 41 31 8 0
26 9 40 19 13 11 44 23 69 27 43 6 44 7 44 45 l0 39 -590 0 c-555 0 -590 -1
-590 -17 0 -12 18 -26 53 -41 28 -12 57 -22 62 -22 18 0 122 -113 143 -155 24
-48 94 -115 140 -134 18 -8 31 -16 29 -20 -2 -3 -12 -25 -23 -48 -10 -24 -24
-43 -29 -43 -6 0 -132 -243 -280 -540 -148 -297 -273 -536 -277 -532 -8 8
-410 968 -438 1047 -10 28 -32 88 -49 134 -51 137 -40 241 25 241 10 0 32 9
49 20 16 11 49 22 72 26 42 6 43 7 43 45 l0 39 -595 0 c-577 0 -595 -1 -595
-19 0 -12 9 -21 26 -25 14 -4 45 -25 68 -46 24 -22 50 -40 59 -40 24 0 68 -49
122 -139 28 -46 62 -97 76 -115 15 -17 36 -50 48 -73 11 -23 25 -44 29 -47 5
-3 177 -402 383 -886 l374 -881 45 3 45 3 337 710 c186 391 371 782 413 869
41 87 78 156 81 153 3 -3 171 -385 373 -849 l368 -843 65 -3 64 -3 109 223
c60 123 184 376 276 563 326 665 446 913 453 938 3 14 21 43 39 65 l34 40 7
-1406 c4 -809 3 -1420 -2 -1437 -17 -58 -49 -104 -98 -141 -58 -45 -104 -63
-161 -64 l-43 0 0 -45 0 -45 615 0 615 0 0 45 0 45 -52 0 c-72 0 -150 40 -189
96 -16 24 -29 48 -29 54 0 6 -9 28 -20 50 -19 38 -20 59 -20 595 l0 556 48
-39 c60 -50 119 -83 207 -116 129 -47 199 -59 360 -59 131 0 163 4 247 26 173
47 191 57 389 212 72 55 209 226 253 313 18 37 45 103 59 147 46 148 52 209
51 530 l0 300 -37 138 c-59 223 -89 286 -206 436 -70 90 -98 117 -163 161
-124 83 -418 153 -593 143z m-76 -153 c24 -11 47 -20 51 -20 4 0 37 -18 71
-40 35 -22 74 -44 85 -49 26 -12 94 -100 152 -197 44 -73 128 -291 164 -424
18 -64 22 -114 25 -337 4 -225 3 -268 -11 -311 -9 -27 -21 -72 -25 -98 -17
-94 -79 -232 -149 -331 -58 -82 -81 -105 -172 -170 -57 -41 -116 -80 -130 -85
-14 -6 -72 -11 -130 -12 -94 -1 -108 1 -137 22 -17 12 -45 22 -63 22 -35 0
-79 20 -100 45 -8 9 -36 29 -63 43 -27 15 -60 33 -72 39 -12 7 -34 31 -49 53
l-26 40 0 684 c0 753 -6 683 65 832 36 74 90 133 180 193 28 19 69 50 93 69
23 18 55 38 70 42 49 15 125 10 171 -10z"/>
</g>
</svg>
